<svg width="90" height="48" viewBox="0 0 90 48" fill="none" xmlns="http://www.w3.org/2000/svg">
<g id="Group 135">
<g id="Group">
<g id="Group_2">
<path id="Vector" d="M29.8962 16.7812C30.1502 13.8054 27.2807 12.3541 25.609 12.3541C24.8098 12.3541 24.2646 12.6811 24.4825 13.3701C25.8269 17.4712 22.6662 23.132 16.7444 23.6405H16.7083C20.8499 14.2778 18.4884 10.7212 12.7122 10.1766C8.31655 9.81355 4.7201 11.8095 2.14074 14.7131C-0.983811 18.1964 -0.329182 21.2093 1.81342 22.3698C2.35861 22.6596 3.04839 22.7689 3.73916 22.7689C5.26529 22.7689 6.79042 22.2604 6.75427 21.8984C6.57254 20.411 7.19002 17.2175 9.91497 14.8585C11.9853 13.0802 14.0927 12.9348 14.3468 13.1163C15.7273 13.9508 14.7102 16.6368 9.98726 26.4709C7.04444 32.568 6.64483 36.4866 10.2413 36.8858C13.0747 37.2127 12.421 35.7243 12.421 35.7243C12.3849 35.7243 12.6751 32.7485 15.0004 27.3776L15.2544 27.6313C15.2906 27.8129 15.3639 28.0666 15.4 28.3204C16.0536 32.7114 17.9432 38.0823 21.3218 38.6991C26.4082 39.6429 27.7878 32.8197 26.2988 33.256C25.6452 33.4375 25.1 33.5459 24.5909 33.5459C20.7766 33.5459 20.2314 28.6835 18.2334 26.1068C23.0648 25.5622 29.3139 23.5663 29.8942 16.7802L29.8962 16.7812Z" fill="#F6257F"/>
<path id="Vector_2" d="M52.3484 17.5796C53.7289 17.5796 54.8555 16.4543 54.8555 15.0391C54.8555 13.6239 53.7289 12.4985 52.3484 12.4985C50.9678 12.4985 49.8052 13.6239 49.8052 15.0391C49.8052 16.4543 50.9317 17.5796 52.3484 17.5796Z" fill="#F6257F"/>
<path id="Vector_3" d="M88.7127 26.1801C87.9134 28.0306 86.2427 31.0796 83.808 31.0796C81.1925 31.0796 84.317 23.8582 85.5881 20.9907C86.06 19.9386 83.9174 18.9226 82.2095 18.9226C81.3742 18.9226 80.6473 19.1764 80.3571 19.7932C80.2115 20.084 80.0659 20.4822 79.8481 20.9185C78.9394 19.068 76.361 18.8504 75.3068 18.8504C70.9383 18.8504 67.8288 22.5895 66.5346 26.5552C65.7153 28.3907 64.3598 30.6453 62.0837 30.6453C60.667 30.6453 60.7032 28.8671 61.4301 26.2182C63.1008 19.9035 65.3538 14.7502 65.898 13.5166C66.3699 12.4645 64.154 11.3752 62.411 11.3752C61.5395 11.3752 60.8126 11.6651 60.5586 12.2829C57.7252 19.5404 56.7081 22.6978 55.5816 26.2182C55.442 26.6605 55.3115 27.1018 55.193 27.5411C54.2834 29.2332 52.8345 31.0816 50.968 31.0816C48.3164 31.0816 51.5132 23.8602 52.7482 20.9927C53.2201 19.9406 51.0775 18.9246 49.3335 18.9246C48.4981 18.9246 47.7712 19.1784 47.481 19.7952C46.9469 20.9968 45.7682 23.5593 44.8585 26.3576C43.3424 29.7226 41.3625 32.3875 38.3986 32.3875C35.0923 32.3875 34.1113 29.9202 34.8744 27.7788C34.8744 27.7788 35.8192 28.3235 37.4899 28.3235C40.505 28.3235 42.6486 26.5813 42.6486 23.3878C42.6486 19.9767 40.4689 18.8875 38.1807 18.8875C33.276 18.8875 30.552 24.9114 30.0791 26.1089C26.7729 34.7826 32.1866 37.1777 35.8192 37.1777C39.4518 37.1777 42.0201 34.9742 43.6537 32.6633C43.6828 35.0634 44.5934 36.8969 47.1899 37.1777C50.6578 37.5678 53.0394 35.593 54.5966 33.0434C54.8808 34.9772 55.9511 36.3603 58.3065 36.6341C62.1821 37.0403 64.5606 34.8658 66.0024 32.1107C66.393 34.26 67.64 35.7986 69.8951 35.7986C72.8379 35.7986 75.0177 33.9481 76.5789 31.5891C76.3249 34.4927 77.088 36.8878 80.0659 37.2138C85.8421 37.8306 88.6394 31.8429 89.5842 27.6334C89.5842 27.6334 89.9115 26.2543 88.7127 26.1821V26.1801ZM39.7058 21.7891C41.4137 21.7891 40.9769 26.4339 37.4538 26.4339C36.8724 26.4339 36.2188 26.3245 35.4919 26.0347C36.6546 23.6035 38.253 21.7891 39.7058 21.7891ZM77.5237 26.471C76.9062 27.9584 75.4163 31.2973 73.1281 31.2973C68.8047 31.2973 73.2736 20.7731 77.342 21.4992C79.2677 21.8262 78.0328 25.2734 77.5237 26.471Z" fill="#F6257F"/>
</g>
<g id="Group_3">
<path id="Vector_4" d="M72.4966 10.627C72.4966 10.627 72.9012 3.80475 76.0167 0.623327C76.822 -0.19911 78.1513 -0.210142 78.9716 0.59725C80.069 1.67745 81.2317 3.6864 80.4004 7.07143C80.4004 7.07143 80.0781 8.86374 77.4174 9.10446C76.7176 9.16764 76.0268 9.31307 75.3551 9.51668C74.5709 9.75438 73.5549 10.1144 72.4956 10.628L72.4966 10.627Z" fill="#F6257F"/>
<path id="Vector_5" d="M72.9673 11.3591C72.9673 11.3591 77.3639 9.32004 79.2485 10.1565C81.1331 10.993 81.2275 12.4573 80.6833 13.4513C80.1391 14.4452 78.1501 15.386 76.37 14.6017C74.5898 13.8174 72.9673 11.3601 72.9673 11.3601V11.3591Z" fill="#F6257F"/>
<path id="Vector_6" d="M71.6108 9.47746C71.6851 8.4785 71.6319 6.07237 69.8217 3.79864C69.5847 3.50075 69.1028 3.66223 69.0947 4.04236C69.0696 5.21784 69.3498 7.34414 71.2414 9.59682C71.3618 9.74024 71.5968 9.66401 71.6108 9.47646V9.47746Z" fill="#F6257F"/>
</g>
</g>
<g id="Group_4">
<path id="Vector_7" d="M65.4561 40.6831C63.7201 40.6831 62.5886 42.1354 62.1849 43.5065C62.1237 43.7181 62.0755 43.9187 62.0373 44.1093C61.698 44.6709 61.212 45.2146 60.5956 45.2146C59.7883 45.2146 60.2723 43.9368 60.4068 43.5336C60.8375 42.323 60.6217 41.1405 59.0343 41.0462C58.0925 40.992 57.2973 41.5567 56.6648 42.2568C56.7049 41.4233 56.463 40.7644 55.3997 40.6972C54.4579 40.63 53.6225 41.2348 52.99 41.9338C53.0573 41.7994 53.1245 41.651 53.1918 41.4905C53.3665 41.1004 52.5994 40.7243 51.9669 40.7243C51.6436 40.7243 51.3615 40.8185 51.24 41.0472C49.5843 44.3279 49.1405 47.4883 51.0914 47.4883C52.2219 47.4883 51.8454 46.9106 51.8454 46.9106C51.8324 46.9106 51.6165 45.9959 52.2631 43.9117C52.4649 43.4543 53.2049 41.9489 54.3766 41.975C55.7089 42.0151 52.5322 46.4933 54.5914 46.8424C55.9107 47.0711 56.1125 46.2506 56.0995 46.2235C55.8706 45.8063 56.0322 45.04 56.2481 44.2196C56.3826 43.6951 56.8947 42.2969 58.0112 42.324C58.469 42.337 58.4821 42.8485 58.3074 43.4263C57.6748 45.4563 57.3786 47.2717 59.1959 47.4732C60.5474 47.6257 61.458 46.7983 62.0343 45.7742C62.3918 47.1342 63.7201 47.4191 64.5404 47.4191C66.0615 47.4191 67.1649 46.1413 67.5555 44.5145C67.919 43.0351 67.7975 40.6821 65.4561 40.6821V40.6831ZM64.5946 45.6448C63.1277 45.6448 64.1769 41.8125 65.6308 41.7854C66.9631 41.7453 66.2633 45.6448 64.5946 45.6448Z" fill="#8C8C8C"/>
<path id="Vector_8" d="M88.0177 42.4984C87.6412 42.4443 87.7486 43.3861 88.5699 43.4533C89.3912 43.5205 91.4103 40.0783 88.2466 40.0783C85.3389 40.0783 84.6522 41.9207 84.5588 42.5927C84.5096 42.9387 84.5678 43.2216 84.6933 43.4603C84.3881 44.1493 83.7796 45.2155 82.9031 45.2155C81.9342 45.2155 83.0919 42.5396 83.5628 41.4774C83.7375 41.0873 82.9433 40.7111 82.3107 40.7111C82.0015 40.7111 81.7324 40.8054 81.624 41.0341C81.5698 41.1414 81.5166 41.2899 81.4352 41.4513C81.0989 40.7653 80.143 40.6851 79.7525 40.6851C78.138 40.6851 76.9874 42.0631 76.5054 43.5285C76.2022 44.1995 75.7002 45.042 74.8658 45.042C74.3548 45.042 74.3678 44.383 74.6239 43.4151C75.2434 41.1153 76.0637 39.2338 76.2665 38.7624C76.4412 38.3722 75.6339 37.9961 75.0014 37.9961C74.6781 37.9961 74.409 38.0904 74.3146 38.3191C73.8166 39.5968 73.4803 40.5246 73.1971 41.2768C72.7935 40.7392 71.9853 40.6851 71.6218 40.6851C68.176 40.6851 66.8436 46.9647 69.6158 46.9647C70.7061 46.9647 71.5274 46.2656 72.1058 45.378C72.0787 46.3599 72.415 47.0991 73.4923 47.2064C74.903 47.3749 75.7695 46.5795 76.3006 45.5705C76.4402 46.3809 76.902 46.9647 77.7464 46.9647C78.8368 46.9647 79.644 46.2786 80.2234 45.405C80.129 46.4812 80.4121 47.3679 81.5156 47.4892C83.6562 47.7179 84.6923 45.4993 85.0427 43.9397C85.0427 43.9397 85.0457 43.9267 85.0487 43.9066C85.8861 44.6538 87.4544 44.8534 87.3309 45.6879C87.2767 46.064 86.9403 46.2656 86.2676 46.2656C84.7194 46.2656 85.9313 45.0289 85.5136 45.0289C85.2576 45.0289 84.5046 45.379 84.369 46.3198C84.2475 47.1001 84.4764 48.0007 86.1592 48.0007C87.4112 48.0007 88.5287 47.2876 88.851 45.9707C89.4434 43.4563 85.4996 43.8324 86.5227 42.2056C86.8319 41.7482 87.6261 41.4393 88.0839 41.4393C89.1603 41.4393 88.3932 42.5416 88.0167 42.5014L88.0177 42.4984ZM72.6449 42.9558C72.6178 43.023 72.6048 43.1032 72.5646 43.1704C72.5244 43.3048 72.4702 43.4121 72.4431 43.5064C72.2142 44.0581 71.662 45.2947 70.8146 45.2947C69.2131 45.2947 70.8688 41.3952 72.3758 41.664C72.8738 41.7582 72.7935 42.4172 72.6449 42.9548V42.9558ZM80.5738 43.5074C80.3449 44.0591 79.7926 45.2957 78.9452 45.2957C77.3438 45.2957 78.9994 41.3962 80.5065 41.665C81.2204 41.7863 80.7625 43.0631 80.5738 43.5074Z" fill="#8C8C8C"/>
</g>
</g>
</svg>
